{"title":"Exodus: Gods and Kings (2014) DVDRip H264 AAC","uid":11828641,"size":726869898,"categoryP":"video","categoryS":"movies","magnet":"?xt=urn:btih:811b2cda8cc4fcc12a0e9d2988693186f8bf86ed&amp;dn=Exodus%3A+Gods+and+Kings+%282014%29+DVDRip+H264+AAC&amp;tr=udp%3A%2F%2Ftracker.openbittorrent.com%3A80&amp;tr=udp%3A%2F%2Fopen.demonii.com%3A1337&amp;tr=udp%3A%2F%2Ftracker.coppersurfer.tk%3A6969&amp;tr=udp%3A%2F%2Fexodus.desync.com%3A6969","seeders":1,"leechers":2,"uploader":"Xanthippus","files":1,"time":1429563696,"description":"The defiant leader Moses rises up against the Egyptian Pharaoh Ramses, setting 600,000 slaves on a monumental journey of escape from Egypt and its terrifying cycle of deadly plagues.\n\n----\n\nVideo\nID                                       : 1\nFormat                                   : AVC\nFormat/Info                              : Advanced Video Codec\nFormat profile                           : High@L3\nFormat settings, CABAC                   : Yes\nFormat settings, ReFrames                : 4 frames\nCodec ID                                 : avc1\nCodec ID/Info                            : Advanced Video Coding\nDuration                                 : 2h 30mn\nBit rate                                 : 508 Kbps\nWidth                                    : 720 pixels\nHeight                                   : 352 pixels\nDisplay aspect ratio                     : 2.40:1\nFrame rate mode                          : Constant\nFrame rate                               : 29.970 fps\nColor space                              : YUV\nChroma subsampling                       : 4:2:0\nBit depth                                : 8 bits\nScan type                                : Progressive\nBits/(Pixel*Frame)                       : 0.067\nStream size                              : 546 MiB (79%)\n\n\nAudio\nID                                       : 2\nFormat                                   : AAC\nFormat/Info                              : Advanced Audio Codec\nFormat profile                           : LC\nCodec ID                                 : 40\nDuration                                 : 2h 30mn\nBit rate mode                            : Constant\nBit rate                                 : 128 Kbps\nChannel(s)                               : 2 channels\nChannel positions                        : Front: L R\nSampling rate                            : 48.0 KHz\nCompression mode                         : Lossy\nStream size                              : 138 MiB (20%)\n\n----\n &lt;a href=&quot;\nhttp://www.imdb.com/title/tt1528100/&quot; rel=&quot;nofollow&quot; target=&quot;_NEW&quot;&gt;\nhttp://www.imdb.com/title/tt1528100/&lt;/a&gt;","torrent":{"xt":"urn:btih:811b2cda8cc4fcc12a0e9d2988693186f8bf86ed","amp;dn":"Exodus%3A+Gods+and+Kings+%282014%29+DVDRip+H264+AAC","amp;tr":["udp%3A%2F%2Ftracker.openbittorrent.com%3A80","udp%3A%2F%2Fopen.demonii.com%3A1337","udp%3A%2F%2Ftracker.coppersurfer.tk%3A6969","udp%3A%2F%2Fexodus.desync.com%3A6969"],"infoHash":"811b2cda8cc4fcc12a0e9d2988693186f8bf86ed","infoHashBuffer":{"type":"Buffer","data":[129,27,44,218,140,196,252,193,42,14,157,41,136,105,49,134,248,191,134,237]},"announce":[],"urlList":[]}}